PathFileType	4	(X/Y/Z)	C:\Users\WrightLab\Desktop\Jo\P3_10.trc
DataRate	CameraRate	NumFrames	NumMarkers	Units	OrigDataRate	OrigDataStartFrame	OrigNumFrames
100.00	100.00	       16	19	mm	100.00	317	       633
Frame#	Time	Headset_Front			Headset_Back			Headset_Left			Headset_Right			Left_Shoulder			Right_Shoulder			Sternum			C7			Left Elbow			Right Elbow			Left Wrist			Right Wrist			Left ASIS			Right ASIS			S2			Left Knee			Right Knee			Left Ankle			Right Ankle			
		X1	Y1	Z1	X2	Y2	Z2	X3	Y3	Z3	X4	Y4	Z4	X5	Y5	Z5	X6	Y6	Z6	X7	Y7	Z7	X8	Y8	Z8	X9	Y9	Z9	X10	Y10	Z10	X11	Y11	Z11	X12	Y12	Z12	X13	Y13	Z13	X14	Y14	Z14	X15	Y15	Z15	X16	Y16	Z16	X17	Y17	Z17	X18	Y18	Z18	X19	Y19	Z19	

317	3.160	-5.05912	1527.46313	1090.07593							-120.73844	1550.07043	994.61053	153.37843	1346.14685	821.71674	-196.08832	1356.97791	903.57642	16.50436	1240.64209	995.10992	-36.14084	1398.46838	813.34991	218.51466	1013.69086	798.07178	-273.93143	1011.98364	918.18939	239.40585	831.12616	901.46478	-214.74356	821.47601	1034.39502	119.49361	889.74579	958.80469	-124.04263	871.13354	1016.32770	-57.98420	944.75775	777.96735	144.88950	474.13397	990.97839	-116.65961	427.83908	972.16229	-197.62724	227.18814	710.73975	140.12964	141.12962	977.45587	
318	3.170	-2.72483	1529.31897	1099.26025							-117.85278	1551.85327	1003.03571	157.68692	1346.91357	833.74573	-192.78073	1357.92603	910.89496	18.66109	1241.79932	1004.78967	-31.56491	1399.88293	822.63037	224.11229	1015.20386	810.16077	-272.29456	1013.47546	924.77747	244.52899	832.82068	913.62573	-213.16556	822.34210	1040.82214	122.73582	889.81018	969.37268	-121.89388	872.44385	1023.60284	-52.67625	945.70776	785.58594	146.23506	473.97433	995.43762	-111.17856	430.23544	991.29205	-190.94252	233.89764	726.02826	140.03558	141.06059	977.78815	
319	3.180	0.30966	1530.88611	1108.11633							-114.35941	1552.92407	1011.25629	161.78992	1347.87524	844.05750	-189.72647	1359.29822	918.43884	21.04955	1243.36902	1014.34839	-27.52392	1401.47510	830.92633	229.73912	1016.55060	821.43164	-269.31204	1014.57178	932.41132	250.19197	835.64862	925.85468	-211.42606	823.67950	1047.51929	125.68743	889.77277	978.33380	-119.29889	873.34631	1030.88782	-46.94212	946.54901	793.20642	147.65244	474.18762	999.23999	-106.00106	433.28745	1010.68640	-183.81197	240.33763	741.51471	139.83662	141.79764	979.23743	
320	3.190	2.29067	1532.99585	1117.15454							-112.19575	1554.67017	1019.69464	165.96611	1348.90540	854.92554	-186.03903	1360.30835	925.58057	22.61127	1243.05725	1022.64569	-22.94275	1402.48755	840.18921	235.34715	1018.24304	833.67578	-267.13348	1015.53717	938.92035	255.50313	837.42078	938.36761	-210.45987	824.47809	1052.98523	128.00238	889.34454	987.28448	-118.60278	874.73169	1038.44531	-42.05967	948.00415	800.65350	149.25368	474.03622	1003.93152	-100.80149	436.31134	1029.03491	-176.25565	246.28552	758.47327	139.72391	141.81245	980.71832	
321	3.200	4.14855	1534.96045	1126.22314							-109.56582	1555.71838	1028.05237	170.04333	1350.93628	866.49194	-183.08330	1360.79041	932.68713	24.07725	1243.58276	1032.03931	-19.76719	1404.18750	849.73328	240.59378	1020.08746	845.46112	-264.97525	1016.32043	944.99329	260.62631	839.60858	951.22382	-208.58382	825.85413	1061.65210	130.17287	889.31714	997.10040	-117.26336	875.86896	1045.04419	-36.99942	949.08221	807.93176	149.43462	474.11566	1007.47119	-96.31700	439.98148	1047.81616	-167.90930	250.47722	774.72198	139.50203	141.75108	980.85175	
322	3.210	6.50454	1536.50061	1135.24292							-107.73714	1556.94836	1036.62036	173.47171	1351.83130	877.11725	-179.86050	1361.95593	939.82440	26.14223	1244.43066	1040.64429	-15.21920	1405.45386	857.76349	245.62740	1021.49872	857.77850	-262.81250	1017.44611	951.20074	265.31995	841.55273	963.51904	-207.16989	827.62244	1069.26172	131.80193	889.02051	1005.68427	-115.25427	876.74103	1052.25342	-32.97515	950.59070	814.93750	149.97034	473.70157	1011.39960	-91.96602	443.15955	1065.63147	-159.88629	254.22153	792.28937	139.34911	141.80762	981.81592	
323	3.220	8.36162	1537.76978	1144.29285							-105.27360	1558.12415	1044.89844	177.35674	1353.58154	887.81006	-176.82480	1362.75574	946.99036	27.77244	1244.43921	1049.66565	-11.36825	1406.72571	866.53802	251.33437	1023.24731	870.53412	-260.78683	1018.34454	956.95288	269.72495	843.77881	976.67896	-206.01837	828.76447	1075.93530	134.01907	890.52386	1014.71332	-114.82456	878.73590	1059.00635	-28.51529	952.17731	822.38721	151.10001	473.87808	1015.05707	-87.64893	447.41428	1083.62134	-152.26128	257.29504	810.45361	139.16296	141.72141	982.56305	
324	3.230	9.75199	1539.49048	1153.31116							-102.27498	1558.80444	1053.04395	181.34587	1354.63464	898.87158	-174.03793	1363.65271	953.67847	29.52367	1245.00476	1058.01221	-7.18925	1408.48523	875.19830	255.92300	1025.49951	882.54120	-257.50546	1018.83679	962.49323	274.54465	845.72461	989.22522	-204.41840	830.21124	1083.25391	135.85861	891.80035	1024.17371	-113.42720	880.46423	1065.01306	-24.14782	953.34302	829.58417	151.39441	473.66547	1019.80347	-83.49977	451.40860	1101.61072	-144.79938	258.94632	828.98523	138.83261	141.52263	983.91541	
325	3.240	11.17581	1540.63916	1162.25049							-99.98689	1559.68921	1061.31665	184.88524	1355.88428	910.28729	-170.78441	1364.61047	960.72223	31.04518	1245.45740	1066.42383	-3.59363	1409.38208	883.97675	261.03561	1026.91565	894.93823	-255.03690	1019.56964	966.83575	279.50467	848.07300	1003.09766	-203.19212	831.81097	1090.72827	137.96596	892.49963	1034.04126	-110.60097	881.84851	1071.39941	-20.46994	955.19165	837.13684	152.18501	472.88339	1024.21558	-80.35830	456.10593	1118.75574	-137.26865	260.84183	847.66327	139.61691	141.86078	984.69525	
326	3.250	12.83411	1541.21826	1171.13879							-98.11166	1560.10278	1069.63062	187.97058	1357.46631	921.49921	-168.00357	1365.27075	967.18616	32.90746	1246.05481	1074.91260	0.20015	1410.75171	892.64185	265.81100	1028.75647	907.29016	-252.88872	1020.34833	972.04718	282.80270	849.44354	1015.23364	-202.12849	833.66589	1098.28601	139.93282	893.45728	1041.73669	-109.17126	883.64075	1077.53027	-16.52923	956.75800	844.30865	152.66698	472.34265	1028.28699	-77.63955	461.46317	1135.79749	-129.61987	261.14606	867.20636	139.96690	141.93440	986.18408	
327	3.260	13.72596	1542.19800	1179.97400							-96.52538	1561.04138	1077.82581	191.54323	1359.30322	932.77045	-165.24568	1366.53821	974.10864	34.31131	1246.74695	1083.70789	3.97741	1412.12988	901.62866	270.96039	1030.46484	920.35431	-250.74162	1021.98492	977.51794	287.60168	851.83618	1028.74438	-200.84970	835.26044	1105.24133	142.01776	894.10321	1050.95435	-108.15284	885.97052	1083.97461	-12.91973	957.88507	851.57379	152.71451	471.63647	1032.16931	-74.74033	466.32477	1152.32910	-122.00801	260.37445	886.81268	139.97311	141.98605	987.15216	
328	3.270	15.19059	1542.62073	1188.78430							-94.53802	1561.08960	1085.99915	194.61464	1360.32996	943.51465	-162.43434	1366.86267	980.41400	35.94213	1247.02649	1091.82813	7.44617	1413.02405	910.14252	275.22656	1032.39404	932.33929	-246.99728	1022.14807	982.22021	291.83215	853.96606	1042.35754	-199.92323	837.34766	1112.61694	143.23306	894.88812	1059.87402	-106.53729	888.26715	1090.44751	-9.42403	958.84808	859.18195	153.53201	472.26022	1035.83313	-72.87155	471.77029	1168.43713	-115.03970	259.00195	906.95227	139.87245	142.60776	988.17389	
329	3.280	16.17839	1543.23022	1197.61145							-93.44794	1561.94275	1094.20593	197.51573	1361.43579	954.43341	-159.71175	1367.94824	987.37634	36.79871	1248.17285	1100.37988	10.63509	1413.90222	918.37964	280.08951	1033.63318	945.28534	-244.25096	1022.72876	987.92426	296.09772	856.20660	1055.87207	-198.89015	839.22815	1120.41699	144.90117	895.45074	1068.37927	-104.27674	890.03821	1096.92944	-5.21371	959.91510	866.70709	154.11880	471.64911	1039.51245	-71.11445	477.21030	1183.89832	-107.42810	256.41983	927.55615	140.00687	142.74001	988.78479	
330	3.290	17.71535	1543.33813	1206.43970							-92.03349	1562.22620	1102.39978	200.64149	1362.88306	964.66766	-157.09471	1368.27222	993.55383	38.59145	1248.31152	1108.70886	14.17929	1414.92017	926.87659	284.63095	1035.35608	957.33008	-240.93216	1023.63422	993.65424	300.13641	858.86798	1068.79077	-197.52846	840.78534	1127.52551	146.63171	896.09296	1077.15454	-103.10648	892.34045	1103.48596	-1.35933	960.21808	874.49969	155.25449	471.71609	1042.00171	-69.60319	481.82306	1198.43555	-100.37809	253.16176	948.58331	140.03268	143.05602	989.01343	
331	3.300	18.39992	1543.51550	1215.30676							-90.59954	1562.73303	1110.52173	203.06474	1363.86877	975.53235	-154.75069	1369.21521	1000.02527	40.02822	1248.83826	1116.51904	17.61469	1416.08594	934.89728	288.88681	1036.96338	970.54504	-238.26112	1023.93585	998.65887	303.54297	860.20123	1082.01831	-196.11266	842.31360	1134.87720	148.16588	896.48602	1086.51489	-101.05894	893.58325	1109.88110	2.21191	961.22760	881.85864	156.05679	471.09592	1044.29443	-67.71445	486.33948	1212.62695	-93.53530	248.71550	970.13062	139.77415	143.41615	989.46332	
332	3.310	18.20278	1544.27478	1224.36426							-89.35075	1562.70178	1118.72852	206.11159	1365.23401	986.37555	-152.09726	1369.47461	1006.66339	40.99651	1249.55627	1125.14868	20.41934	1416.21948	943.61853	292.94705	1038.76367	983.29742	-235.52136	1024.31958	1003.90833	307.37173	862.23193	1095.51599	-195.27097	844.12042	1142.35535	149.74454	894.96198	1093.94812	-100.01964	895.50104	1116.53796	5.57979	961.58008	889.39276	156.66409	471.18381	1047.58521	-66.58445	490.67679	1225.73096	-86.72796	243.85167	992.18518	139.95094	143.65538	989.65259	
